<svg width="163" height="32" viewBox="0 0 163 32" fill="none" xmlns="http://www.w3.org/2000/svg">
<path d="M62.1072 13.3274L65.5461 23.4785H61.2469L60.462 21.1618C59.7024 22.0566 58.7534 22.7712 57.6836 23.254C56.6138 23.7368 55.4501 23.9757 54.2766 23.9534C52.6443 23.9739 51.0477 23.4747 49.7178 22.528C48.6894 21.7915 47.8576 20.8137 47.2955 19.6804C46.7334 18.5472 46.4583 17.2932 46.4942 16.0287C46.5271 14.3846 47.0723 12.7917 48.054 11.4723C48.8342 10.4327 49.8424 9.58575 51.0009 8.99648C52.1595 8.40722 53.4378 8.09131 54.7375 8.07305C56.3718 8.05326 57.9694 8.55828 59.2955 9.51389C60.6177 10.4503 61.6036 11.7873 62.1072 13.3274ZM57.2275 18.8288C57.6129 18.4731 57.922 18.0427 58.1357 17.5637C58.3495 17.0847 58.4635 16.5672 58.4709 16.0427C58.5079 15.4073 58.378 14.7733 58.094 14.2036C57.81 13.634 57.3818 13.1487 56.8521 12.7958C56.1895 12.3403 55.4024 12.1006 54.5984 12.1095C53.9551 12.0871 53.3168 12.2285 52.7431 12.5204C52.1695 12.8122 51.6794 13.245 51.3188 13.7781C50.8347 14.4357 50.5634 15.2257 50.5416 16.042C50.5027 16.6736 50.632 17.3043 50.9166 17.8695C51.2011 18.4348 51.6306 18.9144 52.1612 19.2593C52.8076 19.7309 53.5885 19.9821 54.3885 19.9759C54.9152 19.9826 55.4379 19.8846 55.9263 19.6875C56.4147 19.4905 56.8591 19.1983 57.2337 18.828M81.6852 10.3882C82.4219 11.118 82.9971 11.9945 83.3735 12.9608C83.7498 13.9272 83.9189 14.9618 83.8698 15.9977C83.8552 17.0523 83.6273 18.0931 83.1999 19.0574C82.7726 20.0217 82.1545 20.8895 81.3829 21.6087C80.6317 22.3566 79.7386 22.9467 78.7561 23.3444C77.7735 23.7421 76.7214 23.9394 75.6615 23.9246C74.2743 23.9373 72.909 23.5786 71.7074 22.8855L71.4602 31.9984H67.419L67.8519 15.9984C67.8641 14.9414 68.0909 13.898 68.5183 12.9312C68.9458 11.9644 69.5651 11.0945 70.3388 10.3742C71.0969 9.62842 71.9957 9.04092 72.9831 8.64586C73.9704 8.25079 75.0264 8.05607 76.0897 8.07305C77.1303 8.05255 78.1638 8.24775 79.1252 8.64633C80.0866 9.04491 80.9551 9.63822 81.6759 10.3889L81.6852 10.3882ZM78.5991 18.7954C78.9811 18.4353 79.2866 18.002 79.4977 17.5214C79.7088 17.0408 79.8211 16.5226 79.8278 15.9977C79.8467 15.4827 79.7608 14.9693 79.5754 14.4885C79.3901 14.0077 79.1091 13.5695 78.7494 13.2005C78.3898 12.8314 77.959 12.5393 77.4831 12.3416C77.0072 12.1439 76.4962 12.0449 75.9809 12.0505C75.4539 12.0439 74.9308 12.1423 74.4422 12.3399C73.9536 12.5375 73.5092 12.8304 73.135 13.2015C72.749 13.5593 72.4398 13.9918 72.2261 14.4727C72.0124 14.9537 71.8985 15.473 71.8915 15.9992C71.8663 16.5158 71.9502 17.0319 72.1376 17.5139C72.3251 17.996 72.6119 18.4331 72.9795 18.797C73.3393 19.1701 73.7723 19.4649 74.2513 19.663C74.7303 19.861 75.2451 19.958 75.7633 19.9479C76.2882 19.9553 76.8093 19.8573 77.2956 19.6595C77.7819 19.4618 78.2236 19.1685 78.5945 18.797M99.7664 10.3897C100.503 11.1197 101.078 11.9963 101.454 12.9625C101.831 13.9288 102 14.9634 101.951 15.9992C101.936 17.0538 101.708 18.0945 101.281 19.0588C100.853 20.023 100.235 20.8909 99.4641 21.6103C98.7129 22.3581 97.8198 22.9483 96.8373 23.346C95.8547 23.7437 94.8026 23.9409 93.7427 23.9261C92.3555 23.9389 90.9902 23.5802 89.7886 22.8871L89.5414 32H85.5002L85.9331 16C85.9454 14.943 86.1721 13.8995 86.5996 12.9328C87.0271 11.966 87.6464 11.0961 88.42 10.3758C89.178 9.62991 90.0769 9.04234 91.0642 8.64728C92.0515 8.25221 93.1076 8.05755 94.1709 8.07461C95.2121 8.05326 96.2465 8.24786 97.2087 8.64619C98.171 9.04452 99.0402 9.63791 99.7617 10.3889L99.7664 10.3897ZM96.6803 18.797C97.0619 18.4366 97.3673 18.0033 97.5782 17.5227C97.7891 17.0421 97.9014 16.524 97.9082 15.9992C97.9271 15.4844 97.8413 14.9711 97.656 14.4904C97.4707 14.0097 97.1899 13.5716 96.8304 13.2026C96.4709 12.8336 96.0403 12.5414 95.5646 12.3436C95.0889 12.1459 94.578 12.0467 94.0629 12.0521C93.5359 12.0454 93.0128 12.1437 92.5241 12.3413C92.0355 12.5389 91.5912 12.8319 91.2169 13.203C90.831 13.5609 90.5218 13.9933 90.3081 14.4743C90.0943 14.9552 89.9805 15.4745 89.9735 16.0008C89.9483 16.5173 90.0322 17.0335 90.2196 17.5155C90.4071 17.9975 90.6939 18.4347 91.0615 18.7985C91.4212 19.1718 91.8542 19.4667 92.3332 19.6647C92.8122 19.8628 93.327 19.9597 93.8453 19.9495C94.3702 19.9568 94.8912 19.8587 95.3775 19.661C95.8638 19.4633 96.3055 19.17 96.6764 18.7985M104.448 0.00232424L103.813 23.4808H107.854L108.487 0L104.448 0.00232424ZM123.96 10.3625C124.696 11.0924 125.271 11.9689 125.647 12.935C126.023 13.9012 126.192 14.9356 126.143 15.9713C126.071 18.1025 125.176 20.1228 123.644 21.6067C122.113 23.0907 120.066 23.9225 117.933 23.927C116.886 23.9511 115.846 23.7578 114.877 23.3591C113.909 22.9605 113.034 22.3652 112.307 21.611C111.569 20.8762 110.993 19.9943 110.617 19.0227C110.24 18.051 110.073 17.0111 110.124 15.9704C110.139 14.9148 110.369 13.8733 110.799 12.9092C111.229 11.945 111.851 11.0784 112.626 10.3618C113.38 9.61427 114.276 9.0245 115.261 8.62688C116.246 8.22926 117.3 8.03176 118.362 8.04587C119.404 8.02361 120.439 8.21779 121.402 8.61616C122.365 9.01453 123.234 9.6084 123.956 10.3602L123.96 10.3625ZM120.872 18.7628C121.253 18.4031 121.558 17.9708 121.769 17.4913C121.98 17.0119 122.093 16.495 122.101 15.9713C122.122 15.4602 122.035 14.9504 121.846 14.475C121.657 13.9996 121.371 13.5692 121.005 13.2116C120.651 12.8386 120.224 12.5431 119.75 12.3439C119.275 12.1447 118.765 12.0461 118.251 12.0544C117.725 12.0472 117.202 12.1445 116.714 12.3406C116.226 12.5367 115.781 12.8277 115.406 13.1968C115.021 13.5504 114.712 13.9789 114.498 14.4561C114.284 14.9333 114.17 15.4492 114.162 15.972C114.139 16.4879 114.224 17.0029 114.412 17.4838C114.601 17.9646 114.888 18.4006 115.255 18.7635C115.614 19.1384 116.046 19.4348 116.525 19.634C117.004 19.8332 117.519 19.9308 118.038 19.9207C118.563 19.928 119.085 19.8293 119.571 19.6305C120.058 19.4316 120.499 19.1368 120.869 18.7635M140.453 8.07694L140.238 16.0326C140.2 17.0893 139.755 18.0903 138.996 18.826C138.236 19.5618 137.222 19.9752 136.164 19.9798C135.649 19.9906 135.137 19.8931 134.662 19.6937C134.187 19.4942 133.759 19.1972 133.406 18.8218C133.044 18.4564 132.762 18.0198 132.577 17.5397C132.392 17.0597 132.309 16.5465 132.333 16.0326L132.548 8.07694H128.446L128.232 16.0171C128.184 17.0547 128.356 18.0908 128.734 19.058C129.113 20.0253 129.69 20.9023 130.43 21.632C131.154 22.3862 132.027 22.9821 132.993 23.3821C133.959 23.7822 134.997 23.9777 136.042 23.9565C137.446 23.9596 138.826 23.6018 140.052 22.9174L140.032 23.6301C140.025 24.1529 139.91 24.6687 139.697 25.1459C139.483 25.623 139.174 26.0516 138.789 26.4053C138.413 26.7742 137.969 27.0652 137.48 27.2612C136.992 27.4573 136.47 27.5547 135.944 27.5477L135.836 31.5555C136.898 31.5726 137.954 31.3783 138.942 30.984C139.929 30.5896 140.828 30.003 141.586 29.2582C142.36 28.5394 142.98 27.6707 143.407 26.7051C143.835 25.7394 144.061 24.6969 144.073 23.6409L144.495 8.07618L140.453 8.07694ZM162.369 15.9759C162.358 16.3732 162.317 16.7691 162.247 17.1603H150.542C150.759 17.9726 151.247 18.6867 151.924 19.1855C152.6 19.6924 153.425 19.961 154.27 19.9495C154.854 19.957 155.433 19.833 155.963 19.5865C156.493 19.3401 156.961 18.9775 157.332 18.5257L159.7 21.7602C158.204 23.1731 156.219 23.9502 154.162 23.9277C153.115 23.9522 152.075 23.7595 151.106 23.3617C150.138 22.9639 149.262 22.3696 148.535 21.6165C147.797 20.8836 147.221 20.0038 146.845 19.0341C146.469 18.0644 146.3 17.0265 146.351 15.9876C146.367 14.9332 146.597 13.8931 147.027 12.9303C147.457 11.9676 148.079 11.1025 148.854 10.3874C149.609 9.64127 150.505 9.05269 151.49 8.65591C152.475 8.25914 153.529 8.06209 154.591 8.07618C155.632 8.05391 156.667 8.24753 157.63 8.64491C158.593 9.04228 159.463 9.63476 160.186 10.3851C160.922 11.111 161.497 11.9837 161.873 12.9464C162.25 13.9091 162.419 14.9402 162.371 15.9728L162.369 15.9759ZM150.92 14.1628H157.897C157.606 13.5074 157.124 12.9553 156.513 12.5791C155.903 12.203 155.193 12.0203 154.477 12.0552C153.744 12.026 153.017 12.2094 152.386 12.5834C151.754 12.9573 151.244 13.5058 150.917 14.1628" fill="url(#paint0_linear_5900_498)"/>
<path d="M38.4911 29.1183C30.5642 29.5333 26.2898 27.8578 23.7004 25.2193C17.909 19.3239 20.514 8.62094 9.58886 5.69185C7.66224 5.20608 5.68414 4.95402 3.69727 4.94112C5.23756 3.34751 7.12841 2.13522 9.21946 1.40064C11.3105 0.666052 13.5441 0.429419 15.7426 0.709576C17.9412 0.989733 20.0441 1.77896 21.8841 3.01447C23.7241 4.24998 25.2505 5.89773 26.3419 7.8267L26.3473 7.8368C26.5795 8.3062 26.8074 8.7655 27.0312 9.2147C36.4977 28.2044 38.4911 29.1183 38.4911 29.1183ZM16.0392 10.8669C14.3532 8.56818 11.8869 6.96309 9.10236 6.35241C7.18838 5.88699 5.2256 5.65221 3.25584 5.65301C1.76126 7.46545 0.737963 9.61929 0.277011 11.9228C-0.183941 14.2263 -0.0682421 16.6081 0.613813 18.8561C1.29587 21.1041 2.52312 23.1486 4.18634 24.8077C5.84955 26.4667 7.89713 27.6888 10.1468 28.3652L10.1632 28.3699C3.50842 20.5867 10.2525 9.19759 16.061 10.8988L16.0392 10.8669ZM18.108 15.1242L18 15.0736C17.8063 15.8473 17.3595 16.534 16.7305 17.0245C16.1016 17.515 15.3268 17.7811 14.5292 17.7804C14.3242 17.7801 14.1196 17.7624 13.9176 17.7276C13.4272 17.6431 12.96 17.4571 12.5456 17.1816C12.1313 16.9061 11.779 16.5472 11.5113 16.1277C11.2437 15.7083 11.0665 15.2376 10.9912 14.7457C10.9159 14.2539 10.9441 13.7517 11.074 13.2714C8.95314 15.8111 7.51619 18.9633 8.12081 22.6594C8.5941 24.8186 9.58429 26.8307 11.0064 28.523L11.147 28.6986C13.2637 29.1636 15.4584 29.1402 17.5647 28.6304C19.671 28.1206 21.6335 27.1377 23.3032 25.7563C20.7721 23.8111 17.9502 17.3794 18.108 15.1234V15.1242Z" fill="url(#paint1_linear_5900_498)"/>
<defs>
<linearGradient id="paint0_linear_5900_498" x1="46.4911" y1="16" x2="162.379" y2="16" gradientUnits="userSpaceOnUse">
<stop stop-color="#33CCAE"/>
<stop offset="0.038" stop-color="#2EC6AD"/>
<stop offset="0.252" stop-color="#1AAEAC"/>
<stop offset="0.476" stop-color="#0B9CAA"/>
<stop offset="0.716" stop-color="#0292AA"/>
<stop offset="1" stop-color="#008FAA"/>
</linearGradient>
<linearGradient id="paint1_linear_5900_498" x1="0" y1="14.8883" x2="38.4911" y2="14.8883" gradientUnits="userSpaceOnUse">
<stop stop-color="#33CCAE"/>
<stop offset="0.038" stop-color="#2EC6AD"/>
<stop offset="0.252" stop-color="#1AAEAC"/>
<stop offset="0.476" stop-color="#0B9CAA"/>
<stop offset="0.716" stop-color="#0292AA"/>
<stop offset="1" stop-color="#008FAA"/>
</linearGradient>
</defs>
</svg>
