<svg xmlns="http://www.w3.org/2000/svg" width="174.574" height="32.875" viewBox="0 0 174.574 32.875">
  <g id="Group_340" data-name="Group 340" transform="translate(-301 -65.125)">
    <path id="trackabi_copy" data-name="trackabi copy" d="M2888.834,352.183a8.6,8.6,0,0,1-3.156-2.212,8.7,8.7,0,0,1-1.807-3.307,14.357,14.357,0,0,1-.571-4.141,12.018,12.018,0,0,1,.681-4.064,9.749,9.749,0,0,1,1.975-3.327,9.428,9.428,0,0,1,3.134-2.25,10.141,10.141,0,0,1,4.208-.832,13.26,13.26,0,0,1,2.841.284,13.624,13.624,0,0,1,2.508.813l-1.144,4.5a13.661,13.661,0,0,0-1.7-.529,8.685,8.685,0,0,0-2.066-.227,4.31,4.31,0,0,0-3.635,1.55,6.494,6.494,0,0,0-1.2,4.083,6.725,6.725,0,0,0,1.125,4.16q1.126,1.474,3.927,1.474a13.071,13.071,0,0,0,2.141-.189,8.911,8.911,0,0,0,2.1-.6l.775,4.612a12.623,12.623,0,0,1-2.4.719,15.424,15.424,0,0,1-3.172.3A11.694,11.694,0,0,1,2888.834,352.183Zm57.135.681q-1.085-.095-2.139-.246c-.7-.1-1.372-.22-2.009-.359s-1.207-.284-1.7-.435V324.033l5.5-.908v9.906a10.185,10.185,0,0,1,1.919-.643,9.687,9.687,0,0,1,2.139-.227,8.59,8.59,0,0,1,3.653.737,7.186,7.186,0,0,1,2.657,2.1,9.523,9.523,0,0,1,1.623,3.271,15.254,15.254,0,0,1,.553,4.253,12.873,12.873,0,0,1-.682,4.311,9.145,9.145,0,0,1-1.974,3.289,8.666,8.666,0,0,1-3.173,2.1,11.671,11.671,0,0,1-4.28.737C2947.393,352.958,2946.7,352.926,2945.97,352.864Zm1-15.711a4.74,4.74,0,0,0-1.346.568v10.246c.271.05.615.095,1.034.133s.872.056,1.365.056a3.914,3.914,0,0,0,3.394-1.589,7.022,7.022,0,0,0,1.145-4.2q0-5.445-3.911-5.444A6.351,6.351,0,0,0,2946.966,337.153ZM2838.946,352.3a5.851,5.851,0,0,1-2.362-1.74,6.566,6.566,0,0,1-1.237-2.7,16.333,16.333,0,0,1-.35-3.516V327.624l5.5-.906v5.86h6.6v4.689h-6.6v6.995a5.7,5.7,0,0,0,.608,2.836,2.589,2.589,0,0,0,2.455,1.058,10.162,10.162,0,0,0,1.824-.17,9.269,9.269,0,0,0,1.717-.473l.774,4.387a15.405,15.405,0,0,1-2.213.718,12.619,12.619,0,0,1-2.988.3A9.624,9.624,0,0,1,2838.946,352.3Zm86.9.245a7.278,7.278,0,0,1-2.637-1.115,5.059,5.059,0,0,1-1.7-2.022,7.1,7.1,0,0,1-.591-3.063,5.928,5.928,0,0,1,.683-2.949,5.341,5.341,0,0,1,1.826-1.929,8.167,8.167,0,0,1,2.619-1.04,14.418,14.418,0,0,1,3.062-.32,16.963,16.963,0,0,1,1.9.094,8.183,8.183,0,0,1,1.346.246v-.529a3.162,3.162,0,0,0-.848-2.307,4.044,4.044,0,0,0-2.951-.869,18.355,18.355,0,0,0-2.769.208,11.631,11.631,0,0,0-2.361.586l-.7-4.538c.319-.1.719-.208,1.2-.321s1-.214,1.567-.3,1.162-.164,1.791-.227a18.969,18.969,0,0,1,1.9-.095,12.469,12.469,0,0,1,4.058.567,6.3,6.3,0,0,1,2.6,1.626,6.014,6.014,0,0,1,1.382,2.571,13,13,0,0,1,.407,3.364V351.9q-1.182.265-3.285.624a30.773,30.773,0,0,1-5.09.359A15.718,15.718,0,0,1,2925.847,352.542Zm2.842-8.564a3.723,3.723,0,0,0-1.2.359,2.073,2.073,0,0,0-.814.719,2.048,2.048,0,0,0-.294,1.134,1.946,1.946,0,0,0,.867,1.833,4.694,4.694,0,0,0,2.38.51c.54,0,1.058-.013,1.549-.037a10.239,10.239,0,0,0,1.181-.114V344.11q-.331-.074-.994-.15a10.873,10.873,0,0,0-1.218-.076A10.632,10.632,0,0,0,2928.689,343.978Zm-59.5,8.564a7.289,7.289,0,0,1-2.64-1.115,5.077,5.077,0,0,1-1.695-2.022,7.112,7.112,0,0,1-.59-3.063,5.927,5.927,0,0,1,.681-2.949,5.335,5.335,0,0,1,1.827-1.929,8.155,8.155,0,0,1,2.62-1.04,14.412,14.412,0,0,1,3.063-.32,16.991,16.991,0,0,1,1.9.094,8.218,8.218,0,0,1,1.346.246v-.529a3.16,3.16,0,0,0-.85-2.307,4.046,4.046,0,0,0-2.951-.869,18.322,18.322,0,0,0-2.767.208,11.584,11.584,0,0,0-2.362.586l-.7-4.538c.321-.1.721-.208,1.2-.321s1-.214,1.57-.3,1.161-.164,1.791-.227a18.917,18.917,0,0,1,1.9-.095,12.471,12.471,0,0,1,4.059.567,6.277,6.277,0,0,1,2.6,1.626,6.038,6.038,0,0,1,1.384,2.571,13.088,13.088,0,0,1,.405,3.364V351.9q-1.18.265-3.282.624a30.836,30.836,0,0,1-5.093.359A15.7,15.7,0,0,1,2869.185,352.542Zm2.841-8.564a3.729,3.729,0,0,0-1.2.359,2.054,2.054,0,0,0-.811.719,2.027,2.027,0,0,0-.3,1.134,1.947,1.947,0,0,0,.868,1.833,4.693,4.693,0,0,0,2.379.51c.542,0,1.058-.013,1.55-.037a10.329,10.329,0,0,0,1.182-.114V344.11c-.223-.049-.554-.1-1-.15a10.832,10.832,0,0,0-1.217-.076A10.614,10.614,0,0,0,2872.026,343.978Zm88.535,8.489V332.578h5.5v19.889Zm-47.008,0q-.591-.986-1.345-2.18t-1.6-2.387q-.846-1.195-1.786-2.293a14.983,14.983,0,0,0-1.86-1.858v8.717h-5.5V324.033l5.5-.908v16.6q.813-.9,1.679-1.879t1.676-1.937q.811-.958,1.531-1.822c.477-.576.89-1.077,1.234-1.5h6.537q-1.955,2.3-3.819,4.4t-4.077,4.32a25.793,25.793,0,0,1,2.288,2.443q1.177,1.422,2.287,2.936t2.03,3.03q.921,1.515,1.55,2.765Zm-62.6,0v-18.83a32.292,32.292,0,0,1,3.487-1,19.619,19.619,0,0,1,4.484-.473q.44,0,1.068.057c.419.038.836.089,1.254.151s.836.139,1.255.227a5.78,5.78,0,0,1,1.069.321l-.923,4.651q-.737-.189-1.734-.4a10.458,10.458,0,0,0-2.139-.208,9.69,9.69,0,0,0-1.236.095,7.08,7.08,0,0,0-1.088.208v15.2Zm110.036-23.2a3.53,3.53,0,0,1,0-4.877,3.434,3.434,0,0,1,4.612,0,3.531,3.531,0,0,1,0,4.877,3.437,3.437,0,0,1-4.612,0Z" transform="translate(-2491 -258)" fill="#004373"/>
    <circle id="Ellipse_1_copy" data-name="Ellipse 1 copy" cx="15.5" cy="15.5" r="15.5" transform="translate(301 67)" fill="#004373"/>
    <path id="Rectangle_3_copy_7" data-name="Rectangle 3 copy 7" d="M2803.12,351.28V341.17h3.71v10.11Zm4.719-4.72v-5.39h3.71v5.39Zm-11.46-1.68v-3.71h5.729v3.71Zm16.17-3.03V331.74h3.71v10.11Zm-11.111-1.679V336.46h10.11v3.711Zm4.38-4.721v-3.71h5.729v3.71Z" transform="translate(-2491 -258)" fill="#eff4f9"/>
  </g>
</svg>
