<svg width="229" height="21" viewBox="0 0 229 21" fill="none" xmlns="http://www.w3.org/2000/svg">
<path d="M41.4452 17.1449V8.53619C41.4452 6.59649 40.2174 5.94266 39.0986 5.94266C37.9799 5.94266 36.7231 6.60376 36.7231 8.45627V17.1449H33.1706V8.53619C33.1706 6.59649 31.9428 5.94266 30.824 5.94266C29.7053 5.94266 28.4485 6.60376 28.4485 8.53619V17.1449H24.896V2.91324H28.3686V4.22817C29.2985 3.26922 30.6061 2.75342 31.921 2.75342C33.5048 2.75342 34.7906 3.32007 35.6915 4.55508C36.8974 3.29827 38.176 2.75342 39.9559 2.75342C41.3798 2.75342 42.6584 3.21836 43.4502 4.01022C44.5981 5.15079 45.0049 6.49477 45.0049 8.04944V17.1449H41.4524H41.4452Z" fill="#333894"/>
<path d="M54.9357 11.1293H52.1242C50.8384 11.1293 50.1337 11.7323 50.1337 12.7421C50.1337 13.7519 50.7875 14.3839 52.1824 14.3839C53.1631 14.3839 53.7951 14.2967 54.4199 13.701C54.7977 13.345 54.9357 12.7711 54.9357 11.8921V11.122V11.1293ZM55.0156 17.1445V15.9168C54.0567 16.8757 53.1558 17.2826 51.5213 17.2826C49.8867 17.2826 48.7316 16.8757 47.8889 16.0257C47.1261 15.2339 46.7192 14.0861 46.7192 12.8365C46.7192 10.5626 48.2739 8.71011 51.5794 8.71011H54.9357V7.99816C54.9357 6.43624 54.1729 5.76061 52.2841 5.76061C50.9183 5.76061 50.2935 6.09479 49.5525 6.9375L47.2859 4.72901C48.6807 3.20341 50.0465 2.76025 52.4221 2.76025C56.4105 2.76025 58.4809 4.45295 58.4809 7.78748V17.1591H55.0156V17.1445Z" fill="#333894"/>
<path d="M69.4875 17.1449V8.53619C69.4875 6.59649 68.2597 5.94266 67.141 5.94266C66.0222 5.94266 64.7654 6.60376 64.7654 8.53619V17.1449H61.2129V2.91324H64.6782V4.22817C65.6081 3.24016 66.923 2.75342 68.2307 2.75342C69.6473 2.75342 70.7951 3.21836 71.587 4.01022C72.7348 5.15079 73.0399 6.49477 73.0399 8.04944V17.1449H69.4875Z" fill="#333894"/>
<path d="M82.3024 6.57462C81.8883 6.16053 81.3435 5.94259 80.6388 5.94259C79.9341 5.94259 79.4038 6.16053 78.9969 6.57462C78.2632 7.31563 78.176 8.53612 78.176 10.0181C78.176 11.5001 78.2559 12.7497 78.9969 13.4907C79.4038 13.8975 79.9268 14.1155 80.6388 14.1155C81.3507 14.1155 81.8883 13.8975 82.3024 13.4907C83.0361 12.7497 83.1161 11.4929 83.1161 10.0181C83.1161 8.54338 83.0361 7.31563 82.3024 6.57462ZM85.0558 15.5612C84.184 16.4838 82.7383 17.3047 80.6388 17.3047C78.5392 17.3047 77.1154 16.4838 76.2363 15.5612C74.9505 14.2244 74.6235 12.6117 74.6235 10.0109C74.6235 7.41008 74.9505 5.83362 76.2363 4.48964C77.1081 3.56701 78.5247 2.74609 80.6388 2.74609C82.7528 2.74609 84.184 3.56701 85.0558 4.48964C86.3416 5.83362 86.6613 7.44641 86.6613 10.0109C86.6613 12.5753 86.3344 14.2244 85.0558 15.5612Z" fill="#333894"/>
<path d="M96.1413 6.79263C95.5965 6.24777 95.1315 5.94266 94.2598 5.94266C93.1701 5.94266 91.9641 6.76358 91.9641 8.56524V17.1449H88.4116V2.91324H91.8769V4.27903C92.5598 3.45811 93.9256 2.75342 95.4585 2.75342C96.846 2.75342 97.834 3.10939 98.8148 4.09013L96.1341 6.79263H96.1413Z" fill="#333894"/>
<path d="M107.504 11.1293H104.685C103.406 11.1293 102.694 11.7323 102.694 12.7421C102.694 13.7519 103.355 14.3839 104.743 14.3839C105.731 14.3839 106.356 14.2967 106.98 13.701C107.358 13.345 107.504 12.7711 107.504 11.8921V11.122V11.1293ZM107.583 17.1445V15.9168C106.632 16.8757 105.731 17.2826 104.089 17.2826C102.447 17.2826 101.299 16.8757 100.457 16.0257C99.6939 15.2339 99.2798 14.0861 99.2798 12.8365C99.2798 10.5626 100.834 8.71011 104.14 8.71011H107.504V7.99816C107.504 6.43624 106.733 5.76061 104.852 5.76061C103.486 5.76061 102.861 6.09479 102.12 6.9375L99.8537 4.72901C101.241 3.20341 102.607 2.76025 104.99 2.76025C108.978 2.76025 111.049 4.45295 111.049 7.78748V17.1591H107.576L107.583 17.1445Z" fill="#333894"/>
<path d="M129.792 17.1449V8.53619C129.792 6.59649 128.564 5.94266 127.438 5.94266C126.312 5.94266 125.062 6.60376 125.062 8.45627V17.1449H121.51V8.53619C121.51 6.59649 120.282 5.94266 119.163 5.94266C118.045 5.94266 116.788 6.60376 116.788 8.53619V17.1449H113.235V2.91324H116.701V4.22817C117.631 3.26922 118.938 2.75342 120.253 2.75342C121.837 2.75342 123.123 3.32007 124.024 4.55508C125.23 3.29827 126.508 2.75342 128.281 2.75342C129.705 2.75342 130.983 3.21836 131.775 4.01022C132.923 5.15079 133.337 6.49477 133.337 8.04944V17.1449H129.785H129.792Z" fill="#333894"/>
<path d="M143.276 11.1293H140.464C139.178 11.1293 138.474 11.7323 138.474 12.7421C138.474 13.7519 139.127 14.3839 140.522 14.3839C141.503 14.3839 142.135 14.2967 142.76 13.701C143.138 13.345 143.276 12.7711 143.276 11.8921V11.122V11.1293ZM143.363 17.1445V15.9168C142.404 16.8757 141.51 17.2826 139.868 17.2826C138.227 17.2826 137.079 16.8757 136.236 16.0257C135.466 15.2339 135.059 14.0861 135.059 12.8365C135.059 10.5626 136.614 8.71011 139.919 8.71011H143.283V7.99816C143.283 6.43624 142.52 5.76061 140.631 5.76061C139.265 5.76061 138.633 6.09479 137.9 6.9375L135.633 4.72901C137.028 3.20341 138.394 2.76025 140.769 2.76025C144.765 2.76025 146.828 4.45295 146.828 7.78748V17.1591H143.363V17.1445Z" fill="#333894"/>
<path d="M157.784 14.9656C155.001 14.9656 152.909 12.8588 152.909 10.0618C152.909 7.2649 155.009 5.16539 157.784 5.16539C160.559 5.16539 162.659 7.27217 162.659 10.0618C162.659 12.8515 160.559 14.9656 157.784 14.9656ZM157.784 2.46289C153.309 2.46289 149.931 5.73203 149.931 10.0618C149.931 14.3917 153.309 17.6608 157.784 17.6608C162.259 17.6608 165.637 14.3989 165.637 10.0618C165.637 5.72477 162.259 2.46289 157.784 2.46289Z" fill="#00B8F2"/>
<path d="M176.832 12.1471L169.175 2.81911L169.095 2.73193H167.126V17.3995H170.017V7.9771L177.674 17.3051L177.754 17.3995H179.723V2.73193H176.832V12.1471Z" fill="#00B8F2"/>
<path d="M185.106 2.72412H182.171V17.399H191.485V14.8345H185.106V2.72412Z" fill="#00B8F2"/>
<path d="M193.569 5.23102H195.858V14.9004H193.569V17.3995H201.096V14.9004H198.785V5.23102H201.096V2.73193H193.569V5.23102Z" fill="#00B8F2"/>
<path d="M213.01 12.1471L205.346 2.81911L205.273 2.73193H203.297V17.3995H206.189V7.9771L213.853 17.3051L213.926 17.3995H215.902V2.73193H213.01V12.1471Z" fill="#00B8F2"/>
<path d="M228.55 5.29585V2.72412H218.343V17.399H228.55V14.8345H221.278V11.2602H226.959V8.78294H221.278V5.29585H228.55Z" fill="#00B8F2"/>
<path d="M0 3.58879V16.4765C0 18.4525 1.61278 20.0653 3.5888 20.0653H16.4765C18.4453 20.0653 20.0653 18.4525 20.0653 16.4765V3.58879C20.0653 1.61277 18.4525 0 16.4765 0H3.5888C1.61278 0 0 1.61277 0 3.58879Z" fill="#ED1C24"/>
<path d="M14.9143 13.6436H5.15039V15.4743H14.9143V13.6436Z" fill="white"/>
<path d="M14.9142 4.39502L14.9069 4.40955L12.4805 8.51415V8.52142L14.9142 12.6405V4.39502Z" fill="#FABABF"/>
<path d="M14.9143 4.39502H11.6814L10.0469 7.17743L8.40501 4.39502H5.15039L7.60589 8.48509L10.0541 12.6333L12.4733 8.52868L14.907 4.40955L14.9143 4.39502Z" fill="white"/>
<path d="M5.15039 4.39502V12.6478L7.60589 8.48509L5.15039 4.39502Z" fill="#FABABF"/>
</svg>
